<svg xmlns="http://www.w3.org/2000/svg" height="24" width="24" xmlns:v="https://vecta.io/nano"><path d="M12 0l4.948.072c1.277.058 2.15.26 2.913.558a5.88 5.88 0 0 1 2.125 1.384A5.88 5.88 0 0 1 23.37 4.14c.297.763.5 1.636.558 2.913L24 12l-.072 4.948c-.058 1.277-.26 2.15-.558 2.913a5.88 5.88 0 0 1-1.384 2.125 5.88 5.88 0 0 1-2.125 1.384c-.763.297-1.636.5-2.913.558L12 24c-3.26 0-3.668-.014-4.948-.072s-2.15-.26-2.913-.558a5.88 5.88 0 0 1-2.125-1.384A5.88 5.88 0 0 1 .63 19.86c-.297-.763-.5-1.636-.558-2.913L0 12l.072-4.948C.13 5.775.333 4.903.63 4.14a5.88 5.88 0 0 1 1.384-2.125A5.88 5.88 0 0 1 4.14.63C4.903.333 5.775.13 7.052.072L12 0zm0 2.162l-4.85.07c-1.17.053-1.805.25-2.228.413-.56.218-.96.478-1.38.898s-.68.82-.898 1.38c-.164.423-.36 1.058-.413 2.228L2.162 12l.07 4.85c.053 1.17.25 1.805.413 2.228.218.56.478.96.898 1.38s.82.68 1.38.898c.423.164 1.058.36 2.228.413l4.85.07 4.85-.07c1.17-.053 1.805-.25 2.228-.413.56-.218.96-.478 1.38-.898s.68-.82.898-1.38c.164-.423.36-1.058.413-2.228l.07-4.85-.07-4.85c-.053-1.17-.25-1.805-.413-2.228-.218-.56-.478-.96-.898-1.38s-.82-.68-1.38-.898c-.423-.164-1.058-.36-2.228-.413L12 2.162zm0 3.676c3.403 0 6.162 2.76 6.162 6.162s-2.76 6.162-6.162 6.162S5.838 15.403 5.838 12 8.597 5.838 12 5.838zM12 16a4 4 0 0 0 0-8 4 4 0 1 0 0 8zm7.846-10.406a1.44 1.44 0 1 1-2.88 0 1.44 1.44 0 1 1 2.88 0z" fill="#fff"/></svg>
