<svg xmlns="http://www.w3.org/2000/svg" width="90" height="15" viewBox="0 0 471 76" version="1.1"><g fill="#FFFFFE"><path d="M32.8 31.5L40.2 31.5C45 31.5 48 33.8 48 38.1L48 38.2C48 41.9 45.2 44.8 40.4 44.8L32.8 44.8 32.8 31.5ZM70.3 0.5L0 0.5 0 76 32.8 76 32.8 53.3 40.1 53.3C49.8 53.3 57.7 48.1 57.7 38L57.7 37.9C57.7 29 51.4 22.8 41 22.8L23.2 22.8 23.2 66.4 9.6 66.4 9.6 10.1 68.3 10.1 68.3 66.4 47.4 66.4 39.9 76 77.9 76 77.9 0.5 70.3 0.5 70.3 0.5Z" /><path d="M118.4 45.2C123.3 45.2 126.1 42.3 126.1 38.5L126.1 38.4C126.1 34.1 123.1 31.7 118.2 31.7L110.7 31.7 110.7 45.2 118.4 45.2ZM101 23L119.1 23C129.6 23 136 29.2 136 38.2L136 38.3C136 48.5 128 53.8 118.1 53.8L110.7 53.8 110.7 67 101 67 101 23 101 23ZM176 44.6L176 44.5C176 37 170.6 30.8 162.9 30.8 155.3 30.8 150 36.9 150 44.4L150 44.5C150 52 155.4 58.2 163.1 58.2 170.7 58.2 176 52.1 176 44.6ZM140 44.6L140 44.5C140 32.1 149.7 22 163.1 22 176.4 22 186 32 186 44.4L186 44.5C186 56.9 176.3 67 162.9 67 149.6 67 140 57 140 44.6L140 44.6ZM189 60L194.7 53.2C198.7 56.4 202.9 58.5 208 58.5 211.9 58.5 214.3 56.9 214.3 54.4L214.3 54.3C214.3 51.8 212.8 50.6 205.4 48.7 196.5 46.4 190.8 44 190.8 35.3L190.8 35.2C190.8 27.3 197.2 22 206.2 22 212.7 22 218.2 24 222.7 27.6L217.6 34.8C213.7 32.1 209.8 30.5 206.1 30.5 202.4 30.5 200.4 32.2 200.4 34.3L200.4 34.4C200.4 37.3 202.3 38.3 210 40.2 218.9 42.5 224 45.7 224 53.3L224 53.4C224 62.1 217.3 67 207.8 67 201.1 67 194.3 64.7 189 60" /><polyline points="241.2 31.9 228 31.9 228 23 264 23 264 31.9 250.8 31.9 250.8 67 241.2 67 241.2 31.9"/><polyline points="269 23 279.4 23 291 41.6 302.6 23 313 23 313 67 303.4 67 303.4 38.3 291 57.1 290.8 57.1 278.5 38.5 278.5 67 269 67 269 23"/><polyline points="322 23 354.7 23 354.7 31.6 331.5 31.6 331.5 40.5 351.9 40.5 351.9 49.1 331.5 49.1 331.5 58.4 355 58.4 355 67 322 67 322 23"/><path d="M379.9 58.3C387.7 58.3 393 52.9 393 45.1L393 45C393 37.2 387.7 31.7 379.9 31.7L372.6 31.7 372.6 58.3 379.9 58.3ZM363 23L379.9 23C393.6 23 403 32.5 403 44.9L403 45C403 57.4 393.6 67 379.9 67L363 67 363 23 363 23Z" /><polygon points="410 67 420 67 420 23 410 23"/><path d="M453.6 47.7L447.9 33.5 442.1 47.7 453.6 47.7ZM443.6 22L452.4 22 471 66 461 66 457.1 56.2 438.7 56.2 434.7 66 425 66 443.6 22 443.6 22Z" /></g></svg>
